<svg width="260" height="260" viewBox="0 0 260 260" fill="none" xmlns="http://www.w3.org/2000/svg">
<path d="M101.982 2.60758C105.134 1.90682 110.187 1.00586 113.239 0.605428C117.242 0.0548366 122.295 -0.0953246 131.751 0.0548366C140.607 0.154944 146.361 0.455266 149.763 1.00586C152.515 1.45634 157.218 2.40736 160.27 3.15817C163.321 3.85892 168.625 5.41058 172.127 6.61187C175.679 7.81316 180.783 9.81531 183.535 11.0667C186.286 12.318 190.639 14.4703 193.141 15.9219C195.692 17.3234 199.845 19.8261 202.297 21.4778C204.748 23.1296 208.951 26.1829 211.553 28.2351C214.154 30.3373 218.907 34.642 222.109 37.7953C225.261 40.9988 229.664 45.854 231.866 48.6069C234.017 51.3599 237.419 56.115 239.421 59.1182C241.372 62.1715 244.324 67.2269 245.925 70.3803C247.576 73.5337 249.977 78.8394 251.228 82.1429C252.529 85.4465 254.28 90.5019 255.131 93.405C255.931 96.3081 257.182 101.364 257.832 104.667C258.483 107.971 259.283 113.126 259.583 116.179C259.984 119.683 260.084 125.84 259.934 133.198C259.784 140.005 259.333 146.762 258.883 149.715C258.433 152.468 257.482 157.173 256.732 160.227C256.031 163.28 254.48 168.586 253.279 172.089C252.079 175.643 250.077 180.749 248.827 183.502C247.576 186.255 245.424 190.609 243.973 193.112C242.573 195.665 240.071 199.819 238.42 202.272C236.769 204.724 233.717 208.929 231.666 211.532C229.564 214.135 225.261 218.89 222.109 222.093C218.907 225.247 214.054 229.651 211.302 231.854C208.551 234.006 203.798 237.41 200.796 239.412C197.744 241.364 192.69 244.317 189.538 245.919C186.386 247.57 181.083 249.973 177.781 251.224C174.479 252.526 169.425 254.278 166.524 255.129C163.622 255.929 158.568 257.181 155.266 257.831C151.964 258.482 146.811 259.283 143.759 259.583C140.257 259.984 134.103 260.084 126.748 259.934C119.944 259.784 113.189 259.333 110.237 258.883C107.485 258.432 102.782 257.481 99.7305 256.73C96.6785 256.03 91.3751 254.478 87.8728 253.277C84.3206 252.075 79.2173 250.073 76.4655 248.822C73.7137 247.57 69.3609 245.418 66.8593 243.967C64.3077 242.565 60.205 240.062 57.7034 238.411C55.2018 236.759 51.0491 233.706 48.4474 231.653C45.8458 229.551 41.0927 225.247 37.8906 222.093C34.7386 218.89 30.3358 214.034 28.1343 211.282C25.983 208.529 22.5808 203.773 20.5795 200.77C18.6282 197.717 15.6763 192.662 14.0753 189.508C12.4242 186.355 10.0227 181.049 8.77186 177.746C7.47102 174.442 5.71989 169.387 4.86935 166.483C4.06883 163.58 2.81802 158.525 2.1676 155.221C1.51719 151.918 0.716669 146.762 0.416476 143.709C0.0162178 140.205 -0.0838467 134.049 0.06625 126.691C0.216347 119.883 0.666637 113.126 1.11693 110.173C1.56722 107.42 2.51783 102.715 3.26831 99.6617C3.96877 96.6085 5.51976 91.3028 6.72054 87.7489C7.92131 84.2452 9.9226 79.1397 11.1734 76.3868C12.4242 73.6338 14.5756 69.2791 16.0265 66.7264C17.4274 64.2237 19.9291 60.1193 21.5801 57.6166C23.2312 55.1139 26.2831 50.9595 28.3345 48.3567C30.4358 45.7539 34.7386 40.9988 37.8906 37.7953C41.0927 34.642 45.9458 30.2372 48.6976 28.0349C51.4494 25.8826 56.2024 22.4789 59.2044 20.4768C62.2563 18.5247 67.3096 15.5715 70.4616 13.9698C73.6136 12.318 78.6669 10.0155 81.7189 8.81424C84.7708 7.61295 89.2737 6.06128 91.7253 5.31048C94.1769 4.55967 98.8299 3.35838 101.982 2.60758Z" fill="black"/>
<path d="M124.096 163.63C124.446 163.33 131.151 155.371 139.006 146.011C146.811 136.601 153.365 128.993 153.565 129.093C153.715 129.143 157.518 132.947 170.026 145.961L147.211 171.589C134.653 185.704 124.246 197.467 124.046 197.667C123.896 197.867 112.439 186.855 73.4135 148.214L79.0171 141.957C82.1191 138.503 85.7214 134.449 89.4739 130.194L106.485 147.213C119.944 160.727 123.546 164.131 124.096 163.63Z" fill="white"/>
<path d="M170.426 113.176L178.331 104.267L186.186 95.3571L189.238 98.2602C190.809 99.7392 201.764 110.18 234.195 141.088L242.723 149.215L232.766 149.515C227.313 149.715 219.408 149.866 207.8 149.966L170.426 113.176Z" fill="white"/>
<path d="M124.997 96.9088L139.806 79.6402C147.962 70.13 154.766 62.3717 154.966 62.3717C155.116 62.3717 159.019 66.1257 171.977 79.1397L149.713 104.167C137.455 117.931 126.798 129.894 124.546 132.197L114.14 121.936C108.436 116.33 100.931 108.922 91.225 99.4115L48.9478 148.464H16.4268L18.0278 146.612C18.8784 145.561 35.6392 126.641 90.9748 64.3739L100.331 73.3335C105.534 78.2888 110.988 83.5945 112.489 85.1461C113.99 86.6978 117.442 90.0014 124.997 96.9088Z" fill="white"/>
</svg>
